<svg width="49" height="49" viewBox="0 0 49 49" fill="none" xmlns="http://www.w3.org/2000/svg">
<path d="M24.97 48.43C38.2248 48.43 48.97 37.6848 48.97 24.43C48.97 11.1752 38.2248 0.429993 24.97 0.429993C11.7151 0.429993 0.969971 11.1752 0.969971 24.43C0.969971 37.6848 11.7151 48.43 24.97 48.43Z" fill="#6AC288"/>
<path d="M32.2999 24.54C32.2399 24.54 32.1699 24.54 32.1099 24.54C30.2099 24.49 28.4999 23.67 27.0299 22.1C21.6599 16.42 27.6699 10.33 27.7299 10.27C27.8999 10.11 28.1499 10.08 28.3499 10.2C29.1499 10.69 30.3699 12.07 30.0499 14.13C31.1599 13.74 33.1199 13.25 35.4399 13.54C35.6399 13.56 35.7999 13.7 35.8599 13.9C35.8999 14.04 36.7899 17.04 35.7999 19.26C36.6899 19.33 38.0199 19.68 39.0499 20.98C39.2099 21.19 39.1899 21.48 38.9999 21.66C38.8799 21.77 35.9199 24.54 32.2999 24.54ZM28.1399 11.31C27.0499 12.56 23.6799 17.08 27.7599 21.4C29.0399 22.76 30.5099 23.47 32.1299 23.52C34.7099 23.59 37.0399 21.94 37.9299 21.23C36.6499 20 35.0099 20.26 34.9899 20.27C34.7799 20.3 34.5799 20.21 34.4699 20.03C34.3599 19.85 34.3799 19.62 34.5099 19.46C35.6699 17.99 35.1899 15.4 34.9799 14.5C31.8899 14.22 29.5599 15.42 29.5399 15.43C29.3499 15.53 29.1299 15.5 28.9699 15.36C28.8099 15.22 28.7599 15 28.8299 14.8C29.5299 12.93 28.6599 11.79 28.1399 11.31Z" fill="white"/>
<path d="M26.12 20.93C19.63 16.1 22.13 10.47 22.15 10.41C22.23 10.24 22.4 10.13 22.58 10.12C24.5 10.03 26.57 12.32 26.8 12.58L26.04 13.25C25.55 12.69 24.12 11.33 22.95 11.15C22.57 12.3 21.69 16.37 26.72 20.11L26.12 20.93Z" fill="white"/>
<path d="M36.36 28.17C34.36 28.17 31.53 27.25 28.54 23.35L29.34 22.73C33.64 28.33 37.3 27.27 38.39 26.76C37.91 25.52 36.46 23.87 35.89 23.3L36.61 22.59C36.71 22.69 39.07 25.1 39.49 26.9C39.54 27.11 39.45 27.32 39.28 27.44C39.25 27.45 38.13 28.17 36.36 28.17Z" fill="white"/>
<path d="M16.32 38.74C14.68 38.74 13.19 38.02 12.17 37.01C10.58 35.43 9.67996 32.71 11.27 30.19C14.11 25.69 24.9 19.67 25.35 19.42L25.84 20.31C25.73 20.37 14.82 26.45 12.12 30.73C10.74 32.92 11.66 35.09 12.88 36.29C14.17 37.56 16.54 38.49 19.01 36.89C23.71 33.85 28.97 23.59 29.03 23.48L29.93 23.94C29.71 24.37 24.49 34.55 19.56 37.74C18.48 38.45 17.37 38.74 16.32 38.74Z" fill="white"/>
<path d="M13.45 37.1L12.45 36.97C13.32 30.29 26.7999 21.92 27.3699 21.56L27.8999 22.42C27.7599 22.51 14.26 30.9 13.45 37.1Z" fill="white"/>
</svg>
