<svg width="49" height="49" viewBox="0 0 49 49" fill="none" xmlns="http://www.w3.org/2000/svg">
<path d="M24.99 48.43C38.2448 48.43 48.99 37.6848 48.99 24.43C48.99 11.1752 38.2448 0.429993 24.99 0.429993C11.7352 0.429993 0.98999 11.1752 0.98999 24.43C0.98999 37.6848 11.7352 48.43 24.99 48.43Z" fill="#E3C494"/>
<path d="M32.05 23.66L31.99 23.55C32.28 23.38 32.57 23.24 32.85 23.11L32.91 23.22C32.61 23.4 32.32 23.55 32.05 23.66Z" fill="#ED1C24"/>
<path d="M17.4099 38.18C16.0699 38.18 14.8299 37.79 13.8499 36.97C12.3999 35.77 11.7 33.85 11.89 31.58C12.07 29.37 13.07 27.08 14.69 25.11C15.49 24.15 16.39 23.32 17.37 22.65C17.53 22.54 17.6899 22.43 17.8599 22.33C18.1099 22.18 18.3799 22.02 18.6599 21.88C18.7499 21.83 18.84 21.78 18.95 21.73L19.02 21.7C19.08 21.67 19.13 21.65 19.19 21.63L19.2299 21.61C19.3099 21.57 19.3899 21.54 19.4699 21.5C19.4999 21.49 19.5199 21.48 19.5499 21.48C19.7299 21.43 19.9 21.37 20.07 21.31C20.08 21.31 20.08 21.3 20.09 21.3L20.3499 21.2C20.3599 21.2 20.36 21.19 20.37 21.19C22.7199 20.25 24.65 18.49 25.81 16.23C25.82 16.22 25.82 16.2 25.83 16.19C26.19 15.46 26.65 14.75 27.2 14.09C28.51 12.51 30.1799 11.38 31.9099 10.9C33.6999 10.41 35.33 10.68 36.52 11.66C38.9 13.64 38.6099 17.94 35.8599 21.26C35.0699 22.21 34.13 23.02 33.14 23.59C33.12 23.6 33.11 23.61 33.09 23.61C32.83 23.73 32.56 23.87 32.28 24.02C30.37 25.1 28.8199 26.8 27.9199 28.81C27.6299 29.45 27.4 30.12 27.25 30.82C27.24 30.86 27.23 30.9 27.21 30.94C26.74 31.99 26.11 32.99 25.34 33.92C23.08 36.67 20.0499 38.18 17.4099 38.18ZM19.81 22.47C19.75 22.49 19.7 22.52 19.64 22.54L19.56 22.58C19.49 22.61 19.47 22.62 19.44 22.63L19.34 22.67C19.27 22.7 19.2 22.74 19.12 22.78C18.84 22.92 18.6 23.05 18.38 23.19C18.23 23.28 18.08 23.38 17.94 23.48C17.04 24.1 16.21 24.86 15.46 25.75C13.97 27.55 13.05 29.65 12.89 31.65C12.73 33.59 13.2999 35.19 14.4899 36.18C16.9999 38.25 21.51 36.95 24.56 33.29C25.26 32.45 25.83 31.54 26.26 30.59C26.43 29.83 26.6799 29.09 26.9899 28.4C27.9799 26.21 29.67 24.34 31.77 23.15C32.06 22.98 32.35 22.83 32.64 22.7C33.52 22.18 34.36 21.46 35.07 20.61C37.46 17.72 37.82 14.06 35.87 12.44C34.95 11.68 33.6399 11.48 32.1799 11.88C30.6599 12.3 29.1699 13.31 27.9899 14.74C27.4999 15.33 27.09 15.97 26.76 16.62C26.75 16.64 26.7499 16.65 26.7399 16.67C25.4699 19.16 23.35 21.1 20.77 22.13C20.76 22.13 20.7499 22.14 20.7399 22.14L20.4799 22.24C20.4699 22.25 20.45 22.25 20.44 22.26C20.23 22.34 20.02 22.41 19.81 22.47Z" fill="white"/>
<path d="M15.7599 32.75C15.0099 28.37 18.1299 27.2 18.1599 27.18L18.5099 28.13C18.4099 28.17 16.1599 29.06 16.7599 32.57L15.7599 32.75Z" fill="white"/>
<path d="M34.4802 16.0541L33.7898 17.867L34.7336 18.2265L35.4241 16.4135L34.4802 16.0541Z" fill="white"/>
</svg>
