<svg width="49" height="49" viewBox="0 0 49 49" fill="none" xmlns="http://www.w3.org/2000/svg">
<path d="M24.28 48.05C37.5349 48.05 48.28 37.3049 48.28 24.05C48.28 10.7952 37.5349 0.0500488 24.28 0.0500488C11.0252 0.0500488 0.280029 10.7952 0.280029 24.05C0.280029 37.3049 11.0252 48.05 24.28 48.05Z" fill="#EFCB5A"/>
<path d="M25.67 20.35C25.17 20.35 24.66 20.29 24.16 20.17L24.4 19.19C27.22 19.88 30.12 18.18 31.1 15.37C28.52 14.98 25.94 16.51 24.95 19.1L24 18.73C25.24 15.49 28.62 13.67 31.87 14.49C32.14 14.56 32.31 14.83 32.24 15.1C31.45 18.23 28.67 20.35 25.67 20.35Z" fill="white"/>
<path d="M25.67 27.8901C25.17 27.8901 24.66 27.8301 24.16 27.7101L24.4 26.7301C27.22 27.4101 30.12 25.7201 31.1 22.9101C28.52 22.5201 25.94 24.0501 24.95 26.6401L24 26.2701C25.24 23.0301 28.62 21.2101 31.87 22.0301C32.14 22.1001 32.31 22.3701 32.24 22.6401C31.45 25.7701 28.67 27.8901 25.67 27.8901Z" fill="white"/>
<path d="M25.67 36.0501C25.17 36.0501 24.66 35.9901 24.16 35.8701L24.4 34.8901C27.22 35.5801 30.12 33.8801 31.1 31.0701C28.52 30.6801 25.94 32.2101 24.95 34.8001L24 34.4301C25.24 31.1901 28.62 29.3701 31.87 30.1901C32.14 30.2601 32.31 30.5301 32.24 30.8001C31.45 33.9301 28.67 36.0501 25.67 36.0501Z" fill="white"/>
<path d="M22.89 20.3501C19.89 20.3501 17.12 18.2301 16.33 15.1001C16.26 14.8301 16.43 14.5501 16.7 14.4901C19.95 13.6701 23.33 15.5001 24.57 18.7301L23.62 19.0901C22.63 16.5101 20.06 14.9801 17.47 15.3601C18.44 18.1701 21.34 19.8601 24.17 19.1801L24.41 20.1601C23.9 20.2901 23.39 20.3501 22.89 20.3501Z" fill="white"/>
<path d="M22.89 27.89C19.89 27.89 17.12 25.77 16.33 22.64C16.26 22.37 16.43 22.09 16.7 22.03C19.95 21.21 23.33 23.04 24.57 26.27L23.62 26.63C22.63 24.05 20.06 22.52 17.47 22.9C18.44 25.71 21.34 27.4 24.17 26.72L24.41 27.7C23.9 27.83 23.39 27.89 22.89 27.89Z" fill="white"/>
<path d="M22.89 36.0501C19.89 36.0501 17.12 33.9301 16.33 30.8001C16.26 30.5301 16.43 30.2501 16.7 30.1901C19.95 29.3701 23.33 31.2001 24.57 34.4301L23.62 34.7901C22.63 32.2101 20.06 30.6801 17.47 31.0601C18.44 33.8701 21.34 35.5601 24.17 34.8801L24.41 35.8601C23.9 35.9901 23.39 36.0501 22.89 36.0501Z" fill="white"/>
<path d="M25.04 8.22009H23.52V39.8801H25.04V8.22009Z" fill="white"/>
<path d="M16.8201 15.4801C16.5401 15.4801 16.3101 15.2501 16.3101 14.9701V10.4601C16.3101 10.1801 16.5401 9.95007 16.8201 9.95007C17.1001 9.95007 17.3301 10.1801 17.3301 10.4601V14.9701C17.3301 15.2601 17.1001 15.4801 16.8201 15.4801Z" fill="white"/>
<path d="M31.74 15.4801C31.46 15.4801 31.23 15.2501 31.23 14.9701V10.4601C31.23 10.1801 31.46 9.95007 31.74 9.95007C32.02 9.95007 32.25 10.1801 32.25 10.4601V14.9701C32.25 15.2601 32.02 15.4801 31.74 15.4801Z" fill="white"/>
<path d="M16.8201 31.0801C16.5401 31.0801 16.3101 30.8501 16.3101 30.5701V27.3801C16.3101 27.1001 16.5401 26.8701 16.8201 26.8701C17.1001 26.8701 17.3301 27.1001 17.3301 27.3801V30.5701C17.3301 30.8501 17.1001 31.0801 16.8201 31.0801Z" fill="white"/>
<path d="M31.74 31.0801C31.46 31.0801 31.23 30.8501 31.23 30.5701V27.3801C31.23 27.1001 31.46 26.8701 31.74 26.8701C32.02 26.8701 32.25 27.1001 32.25 27.3801V30.5701C32.25 30.8501 32.02 31.0801 31.74 31.0801Z" fill="white"/>
<path d="M16.8201 22.8401C16.5401 22.8401 16.3101 22.6101 16.3101 22.3301V19.1401C16.3101 18.8601 16.5401 18.6301 16.8201 18.6301C17.1001 18.6301 17.3301 18.8601 17.3301 19.1401V22.3301C17.3301 22.6201 17.1001 22.8401 16.8201 22.8401Z" fill="white"/>
<path d="M31.74 22.8401C31.46 22.8401 31.23 22.6101 31.23 22.3301V19.1401C31.23 18.8601 31.46 18.6301 31.74 18.6301C32.02 18.6301 32.25 18.8601 32.25 19.1401V22.3301C32.25 22.6201 32.02 22.8401 31.74 22.8401Z" fill="white"/>
</svg>
