<svg width="49" height="49" viewBox="0 0 49 49" fill="none" xmlns="http://www.w3.org/2000/svg">
<path d="M24.6301 48.6C37.885 48.6 48.6301 37.8548 48.6301 24.6C48.6301 11.3451 37.885 0.599976 24.6301 0.599976C11.3753 0.599976 0.630127 11.3451 0.630127 24.6C0.630127 37.8548 11.3753 48.6 24.6301 48.6Z" fill="#DD7E88"/>
<path d="M26.0502 24.89H18.6302C14.6402 24.89 11.4001 21.64 11.4001 17.65V16.01C11.4001 15.73 11.6302 15.5 11.9102 15.5H15.8902C16.0602 15.5 16.2201 15.58 16.3102 15.73C16.4002 15.87 16.4202 16.05 16.3602 16.21C16.2602 16.45 16.2102 16.71 16.2102 16.97C16.2102 18.08 17.1101 18.99 18.2301 18.99C19.3401 18.99 20.2502 18.09 20.2502 16.97C20.2502 16.7 20.2002 16.44 20.1002 16.21C20.0402 16.05 20.0501 15.87 20.1501 15.73C20.2401 15.59 20.4002 15.5 20.5702 15.5H26.0602C26.3401 15.5 26.5702 15.73 26.5702 16.01V24.38C26.5602 24.67 26.3302 24.89 26.0502 24.89ZM12.4102 16.53V17.66C12.4102 21.09 15.2002 23.88 18.6302 23.88H25.5401V16.53H21.2202C21.2402 16.68 21.2502 16.83 21.2502 16.98C21.2502 18.65 19.8902 20.01 18.2202 20.01C16.5502 20.01 15.1902 18.65 15.1902 16.98C15.1902 16.83 15.2002 16.68 15.2202 16.53H12.4102Z" fill="white"/>
<path d="M31.48 33.26H26.05C25.77 33.26 25.54 33.03 25.54 32.75V28.87C25.54 28.59 25.77 28.36 26.05 28.36H27.69C28.65 28.36 29.43 27.58 29.43 26.62C29.43 25.66 28.65 24.88 27.69 24.88H26.05C25.77 24.88 25.54 24.65 25.54 24.37V16C25.54 15.72 25.77 15.49 26.05 15.49H31.2701C36.25 15.49 40.33 19.44 40.36 24.3C40.38 26.69 39.45 28.94 37.76 30.63C36.08 32.33 33.85 33.26 31.48 33.26ZM26.56 32.24H31.4901C33.5901 32.24 35.56 31.42 37.05 29.94C38.55 28.44 39.3601 26.45 39.3501 24.33C39.3201 20.03 35.7001 16.52 31.2701 16.52H26.56V23.87H27.69C29.21 23.87 30.44 25.1 30.44 26.62C30.44 28.14 29.21 29.37 27.69 29.37H26.56V32.24Z" fill="white"/>
<path d="M18.2202 20.0101C16.5502 20.0101 15.1902 18.6501 15.1902 16.9801C15.1902 16.5801 15.2702 16.19 15.4202 15.83C15.8902 14.69 16.9902 13.9501 18.2202 13.9501C19.4502 13.9501 20.5502 14.69 21.0202 15.83C21.1702 16.19 21.2502 16.5801 21.2502 16.9801C21.2502 18.6501 19.8902 20.0101 18.2202 20.0101ZM18.2202 14.9601C17.4002 14.9601 16.6702 15.4501 16.3502 16.2101C16.2502 16.4501 16.2002 16.7101 16.2002 16.9701C16.2002 18.0801 17.1002 18.9901 18.2202 18.9901C19.3302 18.9901 20.2402 18.0901 20.2402 16.9701C20.2402 16.7001 20.1902 16.4401 20.0902 16.2101C19.7702 15.4501 19.0402 14.9601 18.2202 14.9601Z" fill="white"/>
<path d="M11.9001 16.52H11.4301C10.0301 16.52 8.90015 15.38 8.90015 13.99C8.90015 12.6 10.0401 11.46 11.4301 11.46H21.4801C22.9601 11.46 24.1602 10.26 24.1602 8.78003H25.1702C25.1702 10.82 23.5102 12.48 21.4702 12.48H11.4202C10.5802 12.48 9.90015 13.16 9.90015 14C9.90015 14.84 10.5802 15.52 11.4202 15.52H11.8902V16.52H11.9001Z" fill="white"/>
<path d="M23.3901 40.95C22.6401 40.95 22.0001 40.7 21.4901 40.2C20.4601 39.19 20.2601 37.3999 20.2301 36.4599C19.1101 36.5799 18.1201 36.3499 17.3001 35.7699C15.5301 34.5099 15.2101 32.0599 15.1901 31.9599C15.1701 31.7999 15.2301 31.64 15.3401 31.53C15.4501 31.42 15.6201 31.37 15.7701 31.39C15.8001 31.39 18.7501 31.8399 20.8601 29.7999C23.3901 27.3599 26.1101 28.36 26.2201 28.4C26.4201 28.47 26.5501 28.66 26.5501 28.87V32.75C26.5501 32.85 26.5201 32.94 26.4701 33.03C23.8501 37.04 24.1301 40.35 24.1301 40.38C24.1401 40.52 24.1001 40.65 24.0101 40.75C23.9201 40.85 23.8001 40.9199 23.6601 40.9299C23.5801 40.9399 23.4801 40.95 23.3901 40.95ZM20.7401 35.35C20.8601 35.35 20.9801 35.39 21.0701 35.47C21.1901 35.57 21.2601 35.73 21.2501 35.88C21.2501 35.91 21.1101 38.4 22.2001 39.47C22.4501 39.72 22.7501 39.86 23.1101 39.91C23.1301 38.74 23.4101 35.91 25.5401 32.6V29.25C24.8501 29.1 23.1801 28.9699 21.5701 30.5199C19.7501 32.2699 17.4801 32.46 16.3301 32.44C16.5201 33.14 16.9601 34.2799 17.8901 34.9299C18.6101 35.4399 19.5401 35.58 20.6301 35.35C20.6701 35.35 20.7101 35.35 20.7401 35.35Z" fill="white"/>
<path d="M21.2502 35.8901L20.2402 35.8201C20.2502 35.7301 20.4202 33.7201 22.9602 32.3101L23.4502 33.2001C21.3802 34.3401 21.2502 35.8801 21.2502 35.8901Z" fill="white"/>
<path d="M36.6136 17.7932L29.2668 25.14L29.981 25.8542L37.3278 18.5074L36.6136 17.7932Z" fill="white"/>
<path d="M30.0936 26.7048L29.6455 27.61L36.7613 31.133L37.2095 30.2278L30.0936 26.7048Z" fill="white"/>
</svg>
