<svg width="22" height="22" viewBox="0 0 22 22" fill="none" xmlns="http://www.w3.org/2000/svg">
<path d="M0 0H22V22H0V0Z" fill="#012169"/>
<path d="M22 0V2.75L13.8359 11L22 19.0352V22H19.1211L10.9141 13.9219L2.92188 22H0V19.0781L7.99219 11.043L0 3.17969V0H2.66406L10.9141 8.07812L18.9062 0H22Z" fill="white"/>
<path d="M7.90625 13.9219L8.37891 15.3828L1.80469 22H0V21.8711L7.90625 13.9219ZM13.2344 13.4062L15.5547 13.75L22 20.0664V22L13.2344 13.4062ZM22 0L13.75 8.42188L13.5781 6.53125L20.0234 0H22ZM0 0.0429688L8.29297 8.16406L5.75781 7.82031L0 2.10547V0.0429688Z" fill="#C8102E"/>
<path d="M7.5625 0V22H14.4375V0H7.5625ZM0 7.5625V14.4375H22V7.5625H0Z" fill="white"/>
<path d="M0 8.9375V13.0625H22V8.9375H0ZM8.9375 0V22H13.0625V0H8.9375Z" fill="#C8102E"/>
</svg>
