<svg width="49" height="49" viewBox="0 0 49 49" fill="none" xmlns="http://www.w3.org/2000/svg">
<path d="M24.99 48.05C38.2448 48.05 48.99 37.3049 48.99 24.05C48.99 10.7952 38.2448 0.0500488 24.99 0.0500488C11.7352 0.0500488 0.98999 10.7952 0.98999 24.05C0.98999 37.3049 11.7352 48.05 24.99 48.05Z" fill="#CE9784"/>
<path d="M36.1 21.6901H13.8901C13.6401 21.6901 13.4201 21.5001 13.3901 21.2501C13.3501 20.9101 13.3201 20.5701 13.3201 20.2301C13.3201 15.0001 18.5601 10.7501 25.0001 10.7501C31.4401 10.7501 36.6801 15.0001 36.6801 20.2301C36.6801 20.5701 36.66 20.9101 36.61 21.2501C36.57 21.5001 36.36 21.6901 36.1 21.6901ZM14.35 20.6801H35.6501C35.6601 20.5301 35.66 20.3801 35.66 20.2401C35.66 15.5701 30.8801 11.7801 25.0001 11.7801C19.1201 11.7801 14.3401 15.5801 14.3401 20.2401C14.3301 20.3801 14.34 20.5301 14.35 20.6801Z" fill="white"/>
<path d="M25.5 8.8501H24.49V11.2601H25.5V8.8501Z" fill="white"/>
<path d="M25.02 39.76C19.51 39.76 15.48 30.15 15.48 25.15V21.18C15.48 20.9 15.71 20.67 15.99 20.67H34.06C34.34 20.67 34.57 20.9 34.57 21.18V25.15C34.56 30.15 30.53 39.76 25.02 39.76ZM16.49 21.69V25.15C16.49 29.74 20.35 38.75 25.02 38.75C29.69 38.75 33.55 29.75 33.55 25.15V21.69H16.49Z" fill="white"/>
<path d="M21.44 33.3401C19.68 31.0001 18.81 28.2701 18.77 28.1501L19.74 27.8401C19.75 27.8701 20.6 30.5201 22.25 32.7201L21.44 33.3401Z" fill="white"/>
<path d="M23.6709 34.4727L23.1548 35.3409L24.7536 36.2914L25.2698 35.4232L23.6709 34.4727Z" fill="white"/>
<path d="M20.2584 14.7962L18.3577 16.1782L18.9516 16.9951L20.8524 15.613L20.2584 14.7962Z" fill="white"/>
<path d="M23.0438 16.7436L22.8357 17.7319L24.8808 18.1625L25.0888 17.1742L23.0438 16.7436Z" fill="white"/>
<path d="M27.9195 14.6028L26.9458 14.8712L27.6342 17.368L28.6079 17.0995L27.9195 14.6028Z" fill="white"/>
<path d="M30.5403 16.7813L30.0295 17.6526L31.7549 18.664L32.2657 17.7927L30.5403 16.7813Z" fill="white"/>
</svg>
