<svg width="49" height="49" viewBox="0 0 49 49" fill="none" xmlns="http://www.w3.org/2000/svg">
<path d="M24.28 48.43C37.5349 48.43 48.28 37.6848 48.28 24.43C48.28 11.1752 37.5349 0.429993 24.28 0.429993C11.0252 0.429993 0.280029 11.1752 0.280029 24.43C0.280029 37.6848 11.0252 48.43 24.28 48.43Z" fill="#91B1DD"/>
<path d="M34.7599 40.21H24.9299C24.6499 40.21 24.4199 39.98 24.4199 39.7V21.46C24.4199 21.36 24.4499 21.27 24.4999 21.19L29.4199 13.43C29.6099 13.14 30.0899 13.14 30.2799 13.43L35.1999 21.19C35.2499 21.27 35.2799 21.37 35.2799 21.46V39.7C35.2699 39.98 35.0399 40.21 34.7599 40.21ZM25.4399 39.19H34.2599V21.61L29.8499 14.65L25.4399 21.61V39.19Z" fill="white"/>
<path d="M14.3101 39.7H13.3V21.31L18.44 13.19H29.84V14.2H19L14.3101 21.61V39.7Z" fill="white"/>
<path d="M24.93 40.21H13.8C13.52 40.21 13.29 39.98 13.29 39.7V21.46C13.29 21.18 13.52 20.95 13.8 20.95H24.93C25.21 20.95 25.44 21.18 25.44 21.46V39.7C25.44 39.98 25.21 40.21 24.93 40.21ZM14.31 39.19H24.42V21.96H14.31V39.19Z" fill="white"/>
<path d="M29.84 14.2H18.72C18.44 14.2 18.21 13.97 18.21 13.69V9.16002C18.21 8.88002 18.44 8.65002 18.72 8.65002H29.85C30.13 8.65002 30.36 8.88002 30.36 9.16002V13.69C30.35 13.98 30.12 14.2 29.84 14.2ZM19.23 13.19H29.34V9.68002H19.23V13.19Z" fill="white"/>
<path d="M21.8199 24.83H17.6799V26.35H21.8199V24.83Z" fill="white"/>
<path d="M21.8199 28.37H17.6799V29.89H21.8199V28.37Z" fill="white"/>
</svg>
