<svg width="180" height="180" viewBox="0 0 180 180" fill="none" xmlns="http://www.w3.org/2000/svg">
<path d="M17.9372 162.764V162.673H20.3337C21.0352 162.673 21.5303 162.702 21.822 162.758C22.1138 162.817 22.3958 162.928 22.6613 163.092C22.9268 163.256 23.1531 163.495 23.3399 163.803C23.5301 164.114 23.6219 164.468 23.6219 164.864C23.6219 165.644 23.2383 166.26 22.4712 166.708C23.1334 166.823 23.635 167.095 23.9726 167.531C24.3103 167.966 24.4775 168.494 24.4775 169.113C24.4775 169.693 24.3333 170.22 24.0415 170.695C23.753 171.17 23.4219 171.484 23.0481 171.642C22.6744 171.799 22.1532 171.878 21.4811 171.878H17.9208V171.783C18.206 171.783 18.3864 171.727 18.465 171.612C18.5437 171.498 18.5831 171.203 18.5831 170.731V163.796C18.5831 163.465 18.5732 163.236 18.5535 163.115C18.5372 162.994 18.4749 162.905 18.37 162.846C18.2716 162.794 18.1241 162.764 17.9372 162.764ZM19.6518 162.866V166.908H20.7697C21.527 166.908 22.0319 166.692 22.281 166.26C22.5302 165.827 22.6547 165.395 22.6547 164.966C22.6547 164.504 22.5564 164.117 22.3663 163.806C22.1761 163.495 21.8942 163.262 21.5237 163.102C21.1565 162.944 20.6123 162.866 19.8944 162.866H19.6518ZM20.373 167.105H19.6551V170.027C19.6551 170.43 19.6715 170.695 19.701 170.813C19.7337 170.934 19.8059 171.062 19.9141 171.193C20.0222 171.324 20.2025 171.435 20.4517 171.514C20.6976 171.596 21.0516 171.635 21.5139 171.635C22.2318 171.635 22.7367 171.468 23.035 171.137C23.3334 170.806 23.4776 170.315 23.4776 169.663C23.4776 168.988 23.3465 168.438 23.0842 168.012C22.8219 167.586 22.5236 167.327 22.1925 167.236C21.8581 167.151 21.2516 167.105 20.373 167.105Z" fill="#2B303A"/>
<path d="M25.3823 162.777V162.673H31.1751V163.94H31.0801C30.9555 163.469 30.8506 163.19 30.7654 163.108C30.6801 163.023 30.467 162.984 30.1359 162.984H27.0969V167.115H29.9195C30.1982 167.115 30.3752 167.088 30.4506 167.036C30.526 166.984 30.5654 166.908 30.5687 166.807H30.6637V167.675H30.5687C30.5457 167.554 30.4998 167.472 30.4211 167.429C30.3424 167.39 30.1982 167.367 29.9917 167.367H27.0936V170.213C27.0936 170.643 27.133 170.95 27.2116 171.14C27.2903 171.33 27.4149 171.452 27.5919 171.498C27.7657 171.543 28.0247 171.57 28.3754 171.57H30.0015C30.5162 171.57 30.8473 171.55 30.9916 171.517C31.1325 171.481 31.2571 171.412 31.3555 171.308C31.4571 171.203 31.5358 170.97 31.5882 170.616H31.68V171.878H25.3823V171.783C25.5921 171.773 25.7561 171.73 25.8675 171.661C25.9757 171.593 26.0347 171.412 26.0347 171.124V163.691C26.0347 163.354 26.0052 163.118 25.9462 162.981C25.8872 162.843 25.7003 162.777 25.3823 162.777Z" fill="#2B303A"/>
<path d="M37.1975 167.642H34.4928L33.0962 171.118C32.9979 171.37 32.952 171.52 32.952 171.579C32.952 171.717 33.0569 171.786 33.2602 171.786V171.881H31.8898V171.786C32.0734 171.786 32.2275 171.743 32.3521 171.651C32.4766 171.56 32.6143 171.33 32.7651 170.954L36.1025 162.532H36.2697L39.5579 170.665C39.5579 170.705 39.6431 170.905 39.8103 171.258C39.9775 171.609 40.2365 171.786 40.5807 171.786V171.881H38.4268V171.786C38.6235 171.786 38.7219 171.71 38.7219 171.556C38.7219 171.452 38.676 171.285 38.5776 171.055C38.5612 171.039 38.5481 171.013 38.535 170.977C38.5252 170.934 38.5186 170.911 38.5153 170.911L37.1975 167.642ZM34.5813 167.386H37.0729L35.8271 164.248L34.5813 167.386Z" fill="#2B303A"/>
<path d="M48.5897 163.134L48.9339 164.107H48.8421C47.9504 163.22 46.9013 162.777 45.6916 162.777C44.436 162.777 43.423 163.151 42.6493 163.894C41.8756 164.641 41.4888 165.545 41.4888 166.604C41.4888 167.259 41.6625 168.009 42.0068 168.861C42.351 169.712 42.8952 170.41 43.6361 170.957C44.3803 171.504 45.2753 171.779 46.3342 171.779C47.0259 171.779 47.7045 171.671 48.37 171.445C49.0355 171.219 49.5306 170.921 49.8551 170.548L49.9371 170.574L49.2912 171.56C48.2487 171.783 47.5734 171.917 47.2619 171.959C46.9505 171.999 46.5374 172.022 46.0129 172.022C44.082 172.022 42.6985 171.573 41.8691 170.679C41.0364 169.784 40.62 168.713 40.62 167.468C40.62 166.626 40.8331 165.817 41.2626 165.041C41.6921 164.261 42.3051 163.652 43.1116 163.203C43.9181 162.755 44.836 162.532 45.8719 162.532C46.3899 162.532 46.8358 162.578 47.2128 162.673C47.5898 162.768 47.9045 162.863 48.1569 162.964L48.5667 163.121C48.5766 163.125 48.5831 163.131 48.5897 163.134Z" fill="#2B303A"/>
<path d="M57.2969 167.285H52.2352V170.823C52.2352 171.157 52.2516 171.37 52.2811 171.458C52.3106 171.55 52.3729 171.629 52.4548 171.691C52.5401 171.753 52.6909 171.783 52.904 171.783V171.878H50.5206V171.783C50.9534 171.812 51.1697 171.602 51.1697 171.154V163.75C51.1697 163.331 51.1337 163.066 51.0648 162.951C50.996 162.84 50.8124 162.777 50.5173 162.764V162.673H52.9007V162.764C52.6384 162.781 52.4614 162.83 52.3696 162.915C52.2778 163 52.2319 163.167 52.2319 163.426V167.029H57.2937V163.734C57.2937 163.357 57.2609 163.105 57.1953 162.967C57.1298 162.83 56.9527 162.764 56.6544 162.764V162.673H59.0082V162.764C58.8214 162.764 58.6837 162.787 58.5919 162.83C58.5001 162.872 58.4378 162.941 58.4083 163.033C58.3722 163.125 58.3591 163.357 58.3591 163.734V170.797C58.3591 171.16 58.3755 171.386 58.4083 171.478C58.4411 171.566 58.5001 171.642 58.582 171.701C58.6673 171.76 58.8083 171.786 59.0115 171.786V171.881H56.6577V171.786C56.9101 171.786 57.0806 171.733 57.1691 171.632C57.2543 171.527 57.2969 171.245 57.2969 170.79V167.285Z" fill="#2B303A"/>
<path d="M69.3252 163.134L69.7186 164.183H69.594C69.253 163.767 68.8564 163.429 68.404 163.174C67.9483 162.918 67.509 162.787 67.0795 162.787C66.6861 162.787 66.3943 162.899 66.1976 163.121C66.0009 163.344 65.9026 163.593 65.9026 163.865C65.9026 164.369 66.3124 165.025 67.1385 165.834L71.22 169.869C71.5249 169.457 71.738 168.929 71.8528 168.287C71.9708 167.645 72.0298 167.151 72.0298 166.8C72.0298 166.541 71.9708 166.377 71.8495 166.309C71.7315 166.24 71.538 166.201 71.2692 166.187L71.1807 166.174L70.9775 166.187V166.083L72.9346 166.07V166.187C72.7248 166.165 72.5871 166.22 72.5117 166.358C72.4396 166.495 72.3675 166.8 72.2953 167.275C72.1183 168.526 71.82 169.453 71.3971 170.053L72.3445 170.99C72.8002 171.439 73.2592 171.665 73.728 171.665C74.0656 171.665 74.4164 171.556 74.7803 171.34L74.8426 171.435C74.282 171.832 73.6755 172.028 73.0231 172.028C72.338 172.031 71.7085 171.75 71.1381 171.18C71.1381 171.163 71.1151 171.134 71.0692 171.095L70.7644 170.8C69.8923 171.619 68.7711 172.028 67.4008 172.028C66.0796 172.028 65.0961 171.691 64.4503 171.016C63.8045 170.341 63.4832 169.598 63.4832 168.785C63.4832 168.081 63.6995 167.468 64.1356 166.951C64.5716 166.433 65.1682 166.102 65.9255 165.961C65.7092 165.65 65.5452 165.369 65.4338 165.12C65.3223 164.867 65.2666 164.595 65.2666 164.307C65.2666 163.852 65.4272 163.446 65.7551 163.082C66.0796 162.718 66.5943 162.538 67.2992 162.538C67.7057 162.538 68.0663 162.591 68.3745 162.699C68.6826 162.807 68.9973 162.951 69.3252 163.134ZM70.5906 170.626L67.0762 167.223C67.0533 167.2 66.9025 167.049 66.6337 166.761C66.3648 166.476 66.1911 166.276 66.1058 166.158C64.8502 166.45 64.2208 167.075 64.2208 168.038C64.2208 168.903 64.6273 169.702 65.4403 170.439C66.2534 171.176 67.1746 171.547 68.2073 171.547C68.7547 171.547 69.1744 171.481 69.476 171.35C69.7776 171.219 70.1153 171 70.4955 170.692C70.5119 170.675 70.5316 170.662 70.5513 170.649C70.5742 170.639 70.5873 170.629 70.5906 170.626Z" fill="#2B303A"/>
<path d="M79.0848 162.764V162.673H81.6976C82.3631 162.673 82.8418 162.689 83.1368 162.715C83.4319 162.745 83.7367 162.843 84.0482 163.007C84.3596 163.174 84.5924 163.397 84.753 163.678C84.9104 163.957 84.9891 164.304 84.9891 164.713C84.9891 165.179 84.8481 165.624 84.5662 166.05C84.2842 166.476 83.8875 166.83 83.3728 167.124L84.0252 168.123C84.1662 168.376 84.5432 168.923 85.153 169.768C85.7628 170.613 86.2381 171.131 86.5725 171.314C86.9069 171.498 87.2282 171.593 87.5396 171.593C87.8478 171.593 88.2018 171.475 88.6018 171.239L88.6411 171.363C88.1395 171.773 87.4904 171.976 86.6905 171.976C86.1562 171.976 85.6972 171.815 85.3136 171.504C84.9301 171.186 84.2646 170.322 83.3106 168.906C83.3007 168.897 83.2974 168.89 83.2974 168.883L82.3729 167.459L81.5501 167.485H80.8059V171.006C80.8059 171.288 80.842 171.491 80.9174 171.615C80.9895 171.737 81.1698 171.799 81.455 171.799V171.894H79.0782V171.799C79.3733 171.789 79.5569 171.727 79.6323 171.612C79.7044 171.501 79.7404 171.272 79.7404 170.928V163.613C79.7404 163.374 79.7077 163.177 79.6454 163.02C79.5929 162.849 79.4028 162.768 79.0848 162.764ZM80.8125 162.915V167.236H81.7763C82.5369 167.236 83.1007 167.059 83.4679 166.699C83.8351 166.338 84.022 165.87 84.022 165.287C84.022 164.72 83.8416 164.183 83.481 163.675C83.1204 163.171 82.4811 162.915 81.573 162.915H80.8125Z" fill="#2B303A"/>
<path d="M89.2345 162.777V162.673H95.0273V163.94H94.9323C94.8077 163.469 94.7028 163.19 94.6175 163.108C94.5323 163.023 94.3192 162.984 93.9881 162.984H90.9491V167.115H93.7717C94.0504 167.115 94.2274 167.088 94.3028 167.036C94.3782 166.984 94.4176 166.908 94.4208 166.807H94.5159V167.675H94.4208C94.3979 167.554 94.352 167.472 94.2733 167.429C94.1946 167.39 94.0504 167.367 93.8439 167.367H90.9458V170.213C90.9458 170.643 90.9851 170.95 91.0638 171.14C91.1425 171.33 91.2671 171.452 91.4441 171.498C91.6179 171.543 91.8769 171.57 92.2276 171.57H93.8537C94.3684 171.57 94.6995 171.55 94.8438 171.517C94.9847 171.481 95.1093 171.412 95.2076 171.308C95.3093 171.203 95.388 170.97 95.4404 170.616H95.5322V171.878H89.2345V171.783C89.4443 171.773 89.6082 171.73 89.7197 171.661C89.8279 171.593 89.8869 171.412 89.8869 171.124V163.691C89.8869 163.354 89.8574 163.118 89.7984 162.981C89.7361 162.846 89.5492 162.777 89.2345 162.777Z" fill="#2B303A"/>
<path d="M100.597 162.791L101.033 163.94L100.958 163.953C100.958 163.95 100.843 163.826 100.61 163.583C100.378 163.341 100.112 163.154 99.817 163.023C99.5187 162.892 99.181 162.827 98.804 162.827C98.1745 162.827 97.6762 163.007 97.3058 163.367C96.9386 163.727 96.7517 164.16 96.7517 164.671C96.7517 165.008 96.837 165.303 97.0107 165.555C97.1845 165.807 97.5451 166.043 98.0926 166.26C99.04 166.577 99.6891 166.82 100.037 166.977C100.384 167.137 100.722 167.409 101.043 167.793C101.364 168.176 101.528 168.667 101.528 169.267C101.528 169.516 101.499 169.755 101.443 169.984C101.384 170.21 101.289 170.43 101.161 170.639C101.033 170.849 100.876 171.039 100.696 171.212C100.515 171.386 100.328 171.517 100.142 171.606C99.9547 171.694 99.6564 171.763 99.2531 171.809C98.8499 171.855 98.5811 171.877 98.4499 171.877H95.9912V169.201H96.0862C96.0961 170.089 96.3026 170.708 96.7091 171.059C97.1189 171.409 97.7549 171.583 98.6171 171.583C99.4006 171.583 99.9973 171.399 100.404 171.029C100.81 170.656 101.014 170.21 101.014 169.693C101.014 169.375 100.941 169.106 100.8 168.88C100.66 168.657 100.46 168.464 100.207 168.294C99.9547 168.127 99.4695 167.92 98.7614 167.678C98.0565 167.429 97.5615 167.213 97.2763 167.029C96.9911 166.846 96.7517 166.564 96.5583 166.194C96.3649 165.824 96.2698 165.441 96.2698 165.054C96.2698 164.343 96.5157 163.744 97.0075 163.262C97.4959 162.777 98.1385 162.538 98.9351 162.538C99.2466 162.538 99.5777 162.574 99.935 162.643C100.296 162.715 100.496 162.758 100.535 162.781C100.561 162.787 100.578 162.791 100.597 162.791Z" fill="#2B303A"/>
<path d="M109.567 162.352L109.131 163.465H109.036C109.052 163.4 109.062 163.308 109.062 163.197C109.062 163.098 109.026 163.039 108.957 163.013C108.888 162.987 108.777 162.974 108.629 162.974H106.226V170.852C106.226 171.176 106.252 171.399 106.305 171.517C106.357 171.635 106.429 171.71 106.518 171.743C106.61 171.773 106.754 171.789 106.954 171.789V171.884H104.459V171.789C104.771 171.769 104.967 171.71 105.046 171.609C105.125 171.511 105.164 171.301 105.164 170.986V162.977H102.859C102.627 162.977 102.472 162.994 102.404 163.017C102.331 163.046 102.299 163.112 102.299 163.22C102.299 163.272 102.315 163.357 102.348 163.469H102.253L101.817 162.355H101.912C101.984 162.506 102.059 162.597 102.135 162.627C102.207 162.656 102.364 162.673 102.607 162.673H108.721C108.964 162.673 109.137 162.656 109.245 162.627C109.35 162.594 109.429 162.506 109.482 162.355H109.567V162.352Z" fill="#2B303A"/>
<path d="M113.874 167.642H111.17L109.773 171.118C109.675 171.37 109.629 171.52 109.629 171.579C109.629 171.717 109.734 171.786 109.937 171.786V171.881H108.567V171.786C108.75 171.786 108.905 171.743 109.029 171.651C109.154 171.56 109.291 171.33 109.442 170.954L112.78 162.532H112.947L116.235 170.665C116.235 170.705 116.32 170.905 116.487 171.258C116.655 171.609 116.914 171.786 117.258 171.786V171.881H115.104V171.786C115.301 171.786 115.399 171.71 115.399 171.556C115.399 171.452 115.353 171.285 115.255 171.055C115.238 171.039 115.225 171.013 115.212 170.977C115.202 170.934 115.196 170.911 115.192 170.911L113.874 167.642ZM111.258 167.386H113.75L112.504 164.248L111.258 167.386Z" fill="#2B303A"/>
<path d="M125.755 171.881H124.008V170.462C123.119 171.448 122.061 171.943 120.831 171.943C119.92 171.943 119.195 171.687 118.658 171.176C118.123 170.662 117.854 169.955 117.854 169.05V163.537C117.854 163.203 117.815 162.994 117.736 162.902C117.658 162.81 117.471 162.768 117.179 162.768V162.676H119.628V162.768C119.369 162.768 119.185 162.807 119.08 162.889C118.976 162.971 118.92 163.161 118.92 163.469V168.526C118.92 169.584 119.169 170.341 119.664 170.793C120.159 171.245 120.723 171.471 121.356 171.471C122.352 171.471 123.234 171.023 124.005 170.128V163.894C124.005 163.351 123.959 163.026 123.86 162.925C123.765 162.82 123.614 162.771 123.411 162.771H123.326V162.679H125.752V162.771C125.454 162.787 125.263 162.836 125.185 162.922C125.106 163.007 125.07 163.164 125.07 163.397V170.891C125.07 171.19 125.086 171.383 125.116 171.471C125.145 171.563 125.204 171.638 125.296 171.701C125.385 171.76 125.539 171.792 125.755 171.792V171.881Z" fill="#2B303A"/>
<path d="M126.781 162.764V162.673H129.394C130.06 162.673 130.538 162.689 130.833 162.715C131.128 162.745 131.433 162.843 131.745 163.007C132.056 163.174 132.289 163.397 132.45 163.678C132.607 163.957 132.686 164.304 132.686 164.713C132.686 165.179 132.545 165.624 132.263 166.05C131.981 166.472 131.584 166.83 131.069 167.124L131.722 168.123C131.863 168.376 132.24 168.923 132.85 169.768C133.459 170.613 133.935 171.131 134.269 171.314C134.603 171.498 134.925 171.593 135.236 171.593C135.544 171.593 135.898 171.475 136.298 171.239L136.338 171.363C135.836 171.773 135.187 171.976 134.387 171.976C133.853 171.976 133.394 171.815 133.01 171.504C132.627 171.186 131.961 170.322 131.007 168.906C130.997 168.897 130.994 168.89 130.994 168.883L130.069 167.459L129.247 167.485H128.502V171.006C128.502 171.288 128.538 171.491 128.614 171.615C128.686 171.737 128.866 171.799 129.152 171.799V171.894H126.775V171.799C127.07 171.789 127.253 171.727 127.329 171.612C127.401 171.501 127.437 171.272 127.437 170.928V163.613C127.437 163.374 127.404 163.177 127.342 163.02C127.286 162.849 127.096 162.768 126.781 162.764ZM128.509 162.915V167.236H129.473C130.233 167.236 130.797 167.059 131.164 166.699C131.532 166.338 131.718 165.87 131.718 165.287C131.718 164.72 131.538 164.183 131.178 163.675C130.817 163.171 130.178 162.915 129.27 162.915H128.509Z" fill="#2B303A"/>
<path d="M141.799 167.642H139.095L137.698 171.118C137.6 171.37 137.554 171.52 137.554 171.579C137.554 171.717 137.659 171.786 137.862 171.786V171.881H136.492V171.786C136.675 171.786 136.829 171.743 136.954 171.651C137.079 171.56 137.216 171.33 137.367 170.954L140.704 162.532H140.872L144.16 170.665C144.16 170.705 144.245 170.905 144.412 171.258C144.579 171.609 144.838 171.786 145.183 171.786V171.881H143.029V171.786C143.225 171.786 143.324 171.71 143.324 171.556C143.324 171.452 143.278 171.285 143.18 171.055C143.163 171.039 143.15 171.013 143.137 170.977C143.127 170.934 143.121 170.911 143.117 170.911L141.799 167.642ZM139.18 167.386H141.672L140.426 164.248L139.18 167.386Z" fill="#2B303A"/>
<path d="M153.303 162.673H155.086V162.764C154.814 162.774 154.628 162.83 154.523 162.938C154.418 163.046 154.369 163.269 154.369 163.613V171.995L147.018 164.173V170.983C147.018 171.199 147.035 171.36 147.068 171.462C147.1 171.566 147.15 171.638 147.212 171.674C147.274 171.714 147.428 171.75 147.681 171.786V171.881H145.91V171.786C146.228 171.786 146.425 171.73 146.504 171.619C146.582 171.507 146.619 171.239 146.619 170.813V164.586C146.619 164.039 146.54 163.593 146.389 163.249C146.238 162.902 145.884 162.745 145.337 162.768V162.676H147.071L153.978 170.023V163.521C153.978 163.171 153.916 162.958 153.788 162.879C153.664 162.8 153.503 162.764 153.31 162.764V162.673H153.303Z" fill="#2B303A"/>
<path d="M163.269 162.352L162.833 163.465H162.738C162.755 163.4 162.764 163.308 162.764 163.197C162.764 163.098 162.728 163.039 162.659 163.013C162.591 162.987 162.482 162.974 162.332 162.974H159.929V170.852C159.929 171.176 159.955 171.399 160.007 171.517C160.06 171.635 160.132 171.71 160.22 171.743C160.312 171.773 160.456 171.789 160.656 171.789V171.884H158.162V171.789C158.473 171.769 158.67 171.71 158.748 171.609C158.827 171.511 158.866 171.301 158.866 170.986V162.977H156.562C156.329 162.977 156.175 162.994 156.106 163.017C156.034 163.046 156.001 163.112 156.001 163.22C156.001 163.272 156.018 163.357 156.05 163.469H155.955L155.519 162.355H155.614C155.686 162.506 155.762 162.597 155.837 162.627C155.909 162.656 156.067 162.673 156.309 162.673H162.423C162.666 162.673 162.84 162.656 162.948 162.627C163.053 162.594 163.132 162.506 163.184 162.355H163.269V162.352Z" fill="#2B303A"/>
<path d="M8.51527 154.228V154.038C9.10209 154.038 9.48238 153.93 9.65613 153.707C9.82988 153.487 9.9184 153.107 9.9184 152.573V137.213C9.9184 136.67 9.84956 136.276 9.71514 136.034C9.58073 135.792 9.17094 135.664 8.48904 135.648V135.458H13.5278V135.648C13.0623 135.648 12.7312 135.706 12.5476 135.828C12.3608 135.946 12.2362 136.086 12.1772 136.247C12.1182 136.407 12.0854 136.774 12.0854 137.344V150.523C12.0854 151.653 12.3575 152.449 12.9017 152.914C13.4426 153.376 14.3737 153.609 15.6916 153.609H17.9831C19.0879 153.609 19.8977 153.337 20.4091 152.79C20.9238 152.249 21.209 151.224 21.2713 149.717H21.4614V154.231H8.51527V154.228Z" fill="#2B303A"/>
<path d="M33.3028 145.586H27.7886L24.9463 152.672C24.7496 153.183 24.6545 153.494 24.6545 153.615C24.6545 153.894 24.8611 154.034 25.2774 154.034V154.224H22.4843V154.034C22.858 154.034 23.1727 153.943 23.4284 153.763C23.6841 153.579 23.9661 153.104 24.271 152.341L31.0833 135.173H31.4177L38.1154 151.751C38.1154 151.836 38.2891 152.239 38.6334 152.957C38.9743 153.674 39.5021 154.034 40.2037 154.034V154.224H35.814V154.034C36.2139 154.034 36.4139 153.877 36.4139 153.563C36.4139 153.35 36.3156 153.009 36.1222 152.544C36.0861 152.508 36.0566 152.452 36.0304 152.377C36.014 152.292 36.0009 152.249 35.991 152.249L33.3028 145.586ZM27.9689 145.065H33.0504L30.5096 138.665L27.9689 145.065Z" fill="#2B303A"/>
<path d="M48.9241 135.644V135.454H57.5494C59.7426 135.454 61.4768 135.628 62.7455 135.972C64.0175 136.316 65.1256 136.86 66.0698 137.597C67.0139 138.337 67.7614 139.28 68.3154 140.433C68.8695 141.583 69.1448 142.867 69.1448 144.289C69.1448 145.658 68.8596 147.001 68.2827 148.325C67.7089 149.645 66.9287 150.785 65.9419 151.741C64.9551 152.698 63.9159 153.35 62.8242 153.704C61.7292 154.057 60.0409 154.234 57.7559 154.234H48.9273V154.044H49.1568C49.6158 154.044 49.9174 153.861 50.0616 153.491C50.2059 153.121 50.278 152.452 50.278 151.483V137.816C50.278 136.797 50.1928 136.182 50.019 135.972C49.842 135.749 49.4781 135.644 48.9241 135.644ZM55.3299 135.847H52.4483V150.415C52.4483 151.332 52.6024 152.017 52.9138 152.459C53.2252 152.908 53.7531 153.229 54.5038 153.428C55.2513 153.628 56.2577 153.727 57.5264 153.727C61.0474 153.727 63.5192 152.822 64.9453 151.017C66.3681 149.209 67.0795 147.244 67.0795 145.108C67.0795 142.602 66.1058 140.43 64.1519 138.596C62.1981 136.765 59.2574 135.847 55.3299 135.847Z" fill="#2B303A"/>
<path d="M79.288 145.586H73.7739L70.9315 152.672C70.7348 153.183 70.6398 153.494 70.6398 153.615C70.6398 153.894 70.8463 154.034 71.2627 154.034V154.224H68.4695V154.034C68.8432 154.034 69.158 153.943 69.4137 153.763C69.6694 153.579 69.9513 153.104 70.2562 152.341L77.0686 135.173H77.403L84.1006 151.751C84.1006 151.836 84.2744 152.239 84.6186 152.957C84.9596 153.674 85.4874 154.034 86.1889 154.034V154.224H81.7992V154.034C82.1992 154.034 82.3992 153.877 82.3992 153.563C82.3992 153.35 82.3008 153.009 82.1074 152.544C82.0713 152.508 82.0418 152.452 82.0156 152.377C81.9992 152.292 81.9861 152.249 81.9763 152.249L79.288 145.586ZM73.9542 145.065H79.0356L76.4949 138.665L73.9542 145.065Z" fill="#2B303A"/>
<path d="M87.3331 135.644V135.454H92.6669C94.0176 135.454 94.9946 135.484 95.601 135.543C96.2043 135.602 96.8239 135.802 97.4566 136.136C98.0893 136.47 98.5679 136.928 98.8925 137.502C99.2138 138.075 99.3777 138.779 99.3777 139.611C99.3777 140.564 99.0892 141.472 98.5155 142.333C97.9418 143.195 97.132 143.925 96.0862 144.522L97.4107 146.559C97.6992 147.07 98.4663 148.184 99.7154 149.907C100.961 151.633 101.925 152.682 102.604 153.062C103.285 153.442 103.941 153.628 104.58 153.628C105.21 153.628 105.931 153.386 106.751 152.901L106.826 153.153C105.807 153.985 104.482 154.405 102.849 154.405C101.761 154.405 100.827 154.084 100.046 153.438C99.2662 152.796 97.9057 151.031 95.9649 148.145C95.9486 148.128 95.9387 148.109 95.9387 148.092L94.0504 145.19L92.3752 145.242H90.854V152.419C90.854 152.996 90.9327 153.409 91.0835 153.661C91.2343 153.91 91.6015 154.034 92.185 154.034V154.224H87.3364V154.034C87.9396 154.008 88.3166 153.88 88.4641 153.654C88.6149 153.425 88.687 152.957 88.687 152.252V137.338C88.687 136.853 88.6247 136.453 88.4969 136.136C88.3657 135.818 87.9789 135.654 87.3331 135.644ZM90.854 135.949V144.754H92.8243C94.3749 144.754 95.5224 144.391 96.2764 143.66C97.0271 142.93 97.4009 141.97 97.4009 140.781C97.4009 139.624 97.0337 138.53 96.2961 137.498C95.5584 136.466 94.2602 135.949 92.4047 135.949H90.854Z" fill="#2B303A"/>
<path d="M117.028 135.693L117.923 138.039L117.769 138.062C117.769 138.055 117.533 137.803 117.061 137.312C116.589 136.82 116.048 136.437 115.442 136.172C114.832 135.903 114.147 135.769 113.383 135.769C112.098 135.769 111.078 136.136 110.327 136.869C109.573 137.606 109.196 138.491 109.196 139.529C109.196 140.217 109.373 140.817 109.727 141.331C110.081 141.845 110.816 142.324 111.94 142.769C113.868 143.418 115.189 143.906 115.901 144.233C116.612 144.561 117.297 145.115 117.956 145.897C118.615 146.677 118.943 147.679 118.943 148.901C118.943 149.409 118.884 149.894 118.762 150.359C118.644 150.824 118.451 151.27 118.189 151.696C117.923 152.125 117.609 152.514 117.238 152.868C116.868 153.219 116.494 153.487 116.11 153.671C115.727 153.851 115.124 153.989 114.297 154.084C113.475 154.175 112.927 154.224 112.665 154.224H107.652V148.77H107.842C107.859 150.578 108.285 151.843 109.118 152.557C109.95 153.271 111.245 153.628 113.009 153.628C114.609 153.628 115.822 153.248 116.651 152.492C117.481 151.738 117.894 150.827 117.894 149.763C117.894 149.117 117.749 148.567 117.461 148.112C117.173 147.657 116.769 147.257 116.248 146.913C115.73 146.569 114.747 146.15 113.304 145.652C111.868 145.147 110.858 144.708 110.275 144.328C109.691 143.948 109.206 143.382 108.813 142.622C108.419 141.862 108.226 141.085 108.226 140.296C108.226 138.845 108.724 137.626 109.724 136.64C110.724 135.654 112.035 135.163 113.658 135.163C114.288 135.163 114.966 135.235 115.697 135.379C116.428 135.523 116.835 135.618 116.923 135.657C116.959 135.687 116.995 135.693 117.028 135.693Z" fill="#2B303A"/>
<path d="M120.536 135.667V135.451H132.348V138.039H132.158C131.905 137.076 131.689 136.512 131.515 136.345C131.341 136.175 130.912 136.09 130.233 136.09H124.037V144.515H129.791C130.361 144.515 130.722 144.463 130.876 144.355C131.03 144.246 131.109 144.092 131.119 143.889H131.309V145.662H131.119C131.076 145.416 130.978 145.252 130.82 145.164C130.663 145.078 130.371 145.036 129.945 145.036H124.041V150.834C124.041 151.709 124.119 152.341 124.283 152.727C124.447 153.114 124.7 153.356 125.054 153.455C125.408 153.553 125.939 153.602 126.653 153.602H129.965C131.017 153.602 131.692 153.566 131.984 153.494C132.276 153.422 132.525 153.278 132.728 153.062C132.931 152.845 133.089 152.377 133.2 151.65H133.39V154.224H120.546V154.034C120.982 154.008 121.31 153.926 121.533 153.785C121.759 153.645 121.87 153.281 121.87 152.695V137.538C121.87 136.85 121.811 136.365 121.69 136.086C121.565 135.811 121.182 135.667 120.536 135.667Z" fill="#2B303A"/>
<path d="M150.103 135.454H153.739V135.644C153.185 135.661 152.801 135.779 152.592 135.995C152.379 136.211 152.27 136.67 152.27 137.364V154.457L137.282 138.511V152.393C137.282 152.836 137.318 153.16 137.383 153.373C137.452 153.586 137.551 153.73 137.679 153.808C137.806 153.884 138.124 153.962 138.636 154.038V154.228H135.026V154.038C135.672 154.038 136.075 153.923 136.233 153.694C136.39 153.464 136.469 152.917 136.469 152.049V139.352C136.469 138.242 136.315 137.331 136.003 136.627C135.692 135.923 134.977 135.595 133.856 135.648V135.458H137.39L151.474 150.441V137.184C151.474 136.473 151.346 136.034 151.09 135.877C150.838 135.72 150.51 135.641 150.11 135.641V135.454H150.103Z" fill="#2B303A"/>
<path d="M164.915 145.586H159.401L156.558 152.672C156.362 153.183 156.267 153.494 156.267 153.615C156.267 153.894 156.473 154.034 156.89 154.034V154.224H154.096V154.034C154.47 154.034 154.785 153.943 155.041 153.763C155.296 153.579 155.578 153.104 155.883 152.341L162.696 135.173H163.03L169.728 151.751C169.728 151.836 169.901 152.239 170.246 152.957C170.586 153.674 171.114 154.034 171.816 154.034V154.224H167.426V154.034C167.826 154.034 168.026 153.877 168.026 153.563C168.026 153.35 167.928 153.009 167.734 152.544C167.698 152.508 167.669 152.452 167.643 152.377C167.626 152.292 167.613 152.249 167.603 152.249L164.915 145.586ZM159.581 145.065H164.663L162.122 138.665L159.581 145.065Z" fill="#2B303A"/>
<path d="M83.4155 97.1017L87.5331 95.0085C85.6775 95.1755 83.763 95.2902 81.714 95.2902C77.0752 95.2902 59.6901 94.9233 56.9494 94.1928C54.2087 93.4623 52.2712 92.2798 51.1369 90.6484C49.9994 89.0138 49.4322 86.521 49.4322 83.16V33.7319V29.8239V28.3793H36.5451V29.0803C38.5678 29.0803 39.8988 29.4669 40.5381 30.2432C41.1741 31.0196 41.4953 33.2733 41.4953 37.0044V87.0385C41.4953 90.5796 41.2298 93.0299 40.702 94.3828C40.1709 95.7357 39.0661 96.4105 37.3843 96.4105H36.5451V97.1115H82.5565C82.8516 97.1115 83.1237 97.105 83.4155 97.1017Z" fill="#2B303A"/>
<path d="M134.876 46.6023C132.853 42.3864 130.112 38.9239 126.657 36.2181C123.201 33.5123 119.146 31.5272 114.494 30.266C109.839 29.0081 103.499 28.3759 95.4633 28.3759H80.6617V29.8205H87.3364C101.718 29.8205 112.484 33.1815 119.628 39.9001C126.775 46.6219 130.345 54.569 130.345 63.7444C130.345 71.5506 127.739 78.7605 122.523 85.371C120.336 88.1423 117.713 90.3371 114.002 92.3025C112.268 93.2034 110.38 94.1075 107.449 95.3195C105.967 95.9321 104.498 96.4562 103.079 96.9279C108.046 96.6593 111.957 96.0762 114.769 95.1688C118.769 93.8782 122.575 91.4836 126.188 87.9851C129.801 84.4866 132.656 80.3165 134.757 75.4782C136.859 70.6432 137.911 65.7197 137.911 60.711C137.911 55.5189 136.898 50.8149 134.876 46.6023Z" fill="#2B303A"/>
<path d="M53.7891 8.9342C62.7521 15.2499 69.1088 24.5563 74.4 34.0037C79.6782 43.5525 83.8154 53.6779 87.5757 63.8689C91.2769 74.0892 94.9159 84.2998 97.9877 94.6316C101.096 104.96 104.321 115.174 107.862 125.45L107.465 125.64C101.709 116.366 97.4861 106.218 93.8012 96.0107C90.1066 85.7903 87.5363 75.2685 84.2383 65.0121C80.9272 54.772 77.2587 44.6368 72.4494 35.029C67.7319 25.4343 62.0374 16.0164 53.5269 9.29126L53.7891 8.9342Z" fill="#2B303A"/>
</svg>
