<svg width="49" height="49" viewBox="0 0 49 49" fill="none" xmlns="http://www.w3.org/2000/svg">
<path d="M24.97 48.05C38.2248 48.05 48.97 37.3049 48.97 24.05C48.97 10.7952 38.2248 0.0500488 24.97 0.0500488C11.7151 0.0500488 0.969971 10.7952 0.969971 24.05C0.969971 37.3049 11.7151 48.05 24.97 48.05Z" fill="#DEB28E"/>
<path d="M30.59 35.4301C28.14 35.4301 25.93 34.3801 24.79 32.4101C24.73 32.3101 24.67 32.2001 24.62 32.0901C23.94 30.7201 23.85 29.1501 24.34 27.5401C24.71 26.3201 25.41 25.1501 26.36 24.1601C27.02 23.4701 27.77 22.8801 28.6 22.4001C29.37 21.9501 30.19 21.6101 31.01 21.3901C34.43 20.4701 37.71 21.5701 39.17 24.1001C40.08 25.6801 40.18 27.6001 39.44 29.5101C38.71 31.3801 37.27 33.0101 35.36 34.1101C33.82 35.0001 32.15 35.4301 30.59 35.4301ZM33.39 22.0801C32.71 22.0801 32 22.1701 31.28 22.3701C30.54 22.5701 29.81 22.8701 29.11 23.2801C28.36 23.7101 27.69 24.2401 27.09 24.8601C26.25 25.7401 25.63 26.7701 25.3 27.8401C24.88 29.2001 24.96 30.5101 25.52 31.6401C25.57 31.7301 25.61 31.8201 25.66 31.9001C27.25 34.6401 31.37 35.2401 34.85 33.2301C36.55 32.2501 37.85 30.7901 38.49 29.1401C39.12 27.5301 39.05 25.9201 38.29 24.6101C37.36 22.9901 35.52 22.0801 33.39 22.0801Z" fill="white"/>
<path d="M16.9101 36.12C16.1701 36.12 15.4501 36.03 14.7801 35.85C13.1901 35.42 11.9601 34.53 11.2301 33.26C9.27011 29.86 9.4501 24.94 13.6501 22.51C14.5301 22 15.5601 21.61 16.7001 21.36C20.4601 20.54 25.5001 21.35 27.0901 24.1C27.1301 24.17 27.1701 24.24 27.2001 24.31C27.2701 24.49 27.2301 24.71 27.1001 24.85C26.2601 25.73 25.6401 26.76 25.3101 27.83C24.8901 29.19 24.9701 30.5 25.5301 31.63C25.6201 31.82 25.5901 32.04 25.4501 32.19C24.6301 33.1 23.6501 33.88 22.5401 34.52C20.7501 35.57 18.7601 36.12 16.9101 36.12ZM19.6801 22.05C18.7701 22.05 17.8301 22.14 16.9201 22.34C15.8801 22.57 14.9501 22.92 14.1601 23.38C10.0601 25.75 10.6901 30.28 12.1101 32.75C12.7001 33.78 13.7201 34.51 15.0501 34.87C17.1401 35.43 19.7601 34.98 22.0401 33.66C22.9601 33.13 23.7801 32.49 24.4801 31.77C23.9401 30.48 23.8901 29.03 24.3501 27.54C24.6901 26.43 25.2901 25.37 26.1101 24.44C25.0901 22.96 22.4901 22.05 19.6801 22.05Z" fill="white"/>
<path d="M26.7302 25.01C26.7002 25.01 26.6702 25.01 26.6302 25C26.4602 24.97 26.3202 24.85 26.2602 24.69C26.2502 24.66 26.2402 24.64 26.2202 24.62C25.0202 22.54 20.7702 21.51 16.9202 22.35C16.6602 22.41 16.4101 22.26 16.3301 22.01C15.0901 18.09 16.0902 14.75 19.0002 13.07C20.9902 11.92 23.6702 11.68 26.3402 12.41C28.7902 13.08 30.8802 14.48 31.7902 16.07C32.7002 17.65 32.6402 19.85 31.6002 22.1C31.5402 22.24 31.4201 22.34 31.2701 22.38C30.5301 22.58 29.8002 22.88 29.1002 23.29C28.3502 23.72 27.6801 24.25 27.0801 24.87C27.0001 24.96 26.8602 25.01 26.7302 25.01ZM19.6402 21.05C22.5302 21.05 25.4702 21.9 26.8202 23.7C27.3602 23.2 27.9602 22.77 28.6002 22.4C29.3002 22 30.0302 21.68 30.7802 21.46C31.5902 19.59 31.6402 17.81 30.9202 16.57C30.1302 15.2 28.2801 13.98 26.0801 13.38C23.6701 12.72 21.2802 12.93 19.5102 13.94C16.2302 15.84 16.6702 19.42 17.1702 21.26C17.9602 21.12 18.8002 21.05 19.6402 21.05Z" fill="white"/>
<path d="M17.1801 31.34C15.2901 31.34 13.9801 30.54 13.9001 30.49L14.4402 29.63C14.5402 29.69 17.0102 31.17 19.9702 29.61L20.4402 30.51C19.2602 31.13 18.1401 31.34 17.1801 31.34Z" fill="white"/>
<path d="M30.2601 31.7L30.1001 30.7C33.3101 30.19 34.3501 27.43 34.3601 27.41L35.3101 27.76C35.2601 27.89 34.0501 31.09 30.2601 31.7Z" fill="white"/>
<path d="M21.6501 17.6C21.6501 17.6 21.6602 17.58 21.6602 17.54L20.6501 17.49C20.6601 17.22 20.9101 15.88 24.5501 15.88V16.89C21.9501 16.9 21.6501 17.59 21.6501 17.6Z" fill="white"/>
</svg>
