<svg width="49" height="49" viewBox="0 0 49 49" fill="none" xmlns="http://www.w3.org/2000/svg">
<g opacity="0.92">
<path d="M24.6301 48.3499C37.885 48.3499 48.6301 37.6048 48.6301 24.3499C48.6301 11.0951 37.885 0.349976 24.6301 0.349976C11.3753 0.349976 0.630127 11.0951 0.630127 24.3499C0.630127 37.6048 11.3753 48.3499 24.6301 48.3499Z" fill="#EF879D"/>
</g>
<path d="M24.63 37.76C24.17 37.76 23.71 37.62 23.32 37.33L12.63 29.51C11.62 28.77 11.02 27.59 11.02 26.34V24.88C11.02 17.32 17.02 11.07 24.4 10.95C28.11 10.89 31.63 12.2999 34.26 14.9399C36.83 17.5099 38.25 20.93 38.25 24.57V26.3499C38.25 27.5999 37.65 28.79 36.64 29.52L25.96 37.34C25.55 37.62 25.09 37.76 24.63 37.76ZM24.63 11.96C24.56 11.96 24.48 11.96 24.41 11.96C17.58 12.08 12.03 17.87 12.03 24.88V26.34C12.03 27.27 12.48 28.1499 13.23 28.6899L23.92 36.51C24.35 36.82 24.92 36.82 25.35 36.51L36.04 28.6899C36.79 28.1399 37.24 27.26 37.24 26.34V24.5599C37.24 21.1899 35.93 18.03 33.55 15.65C31.15 13.26 27.99 11.96 24.63 11.96Z" fill="white"/>
<path d="M21.3001 35.78H17.7201C17.1901 35.78 16.7101 35.49 16.4701 35.02C16.2301 34.55 16.2701 33.9899 16.5701 33.5699L17.5101 32.2399L17.9401 32.1599L18.1301 32.2899L21.9001 35.0499L21.6801 35.77L21.3001 35.78ZM17.9301 33.39L17.4001 34.15C17.2801 34.32 17.3401 34.4899 17.3701 34.5499C17.4001 34.6099 17.5001 34.7599 17.7201 34.7599H19.8101L17.9301 33.39Z" fill="white"/>
<path d="M31.5301 35.78H27.5901L27.3401 35.07L27.6501 34.83L31.5301 31.99L31.8601 32.4L32.6801 33.57C32.9801 34 33.0201 34.55 32.7801 35.02C32.5401 35.49 32.0601 35.78 31.5301 35.78ZM29.4401 34.77H31.5301C31.7401 34.77 31.8401 34.62 31.8801 34.56C31.9101 34.5 31.9801 34.33 31.8501 34.16L31.3201 33.4L29.4401 34.77Z" fill="white"/>
<path d="M24.8 11.45H23.79V28.5099H24.8V11.45Z" fill="white"/>
<path d="M16.9279 14.1646L15.978 14.5079L21.2907 29.208L22.2406 28.8647L16.9279 14.1646Z" fill="white"/>
<path d="M12.22 21.3406L11.4629 22.0092L19.4917 31.1018L20.2488 30.4333L12.22 21.3406Z" fill="white"/>
<path d="M31.9091 13.7457L26.5964 28.4457L27.5463 28.789L32.859 14.089L31.9091 13.7457Z" fill="white"/>
<path d="M36.6053 20.8986L28.5776 29.9924L29.3348 30.6609L37.3625 21.567L36.6053 20.8986Z" fill="white"/>
<path d="M25.56 33.47H23.24V34.48H25.56V33.47Z" fill="white"/>
</svg>
