<svg width="49" height="49" viewBox="0 0 49 49" fill="none" xmlns="http://www.w3.org/2000/svg">
<path d="M24.28 48.3499C37.5349 48.3499 48.28 37.6048 48.28 24.3499C48.28 11.0951 37.5349 0.349976 24.28 0.349976C11.0252 0.349976 0.280029 11.0951 0.280029 24.3499C0.280029 37.6048 11.0252 48.3499 24.28 48.3499Z" fill="#4BAEDE"/>
<path d="M21.8601 34.23C16.4301 34.23 11.3801 31.31 8.34014 26.42C8.24014 26.26 8.24014 26.0501 8.34014 25.8901C11.3801 21.0001 16.4301 18.0801 21.8601 18.0801C26.7801 18.0801 31.3201 20.4101 34.4301 24.5101C35.8601 22.5201 37.5601 20.7801 39.4801 19.3401C39.6501 19.2201 39.8701 19.2001 40.0501 19.3101C40.2301 19.4201 40.3201 19.6201 40.2901 19.8301C40.1301 20.7601 39.7601 21.7 39.4001 22.6C38.9301 23.77 38.4501 24.99 38.4501 26.16C38.4501 27.33 38.9301 28.54 39.4001 29.72C39.7601 30.62 40.1301 31.5601 40.2901 32.4901C40.3301 32.6901 40.2301 32.9001 40.0501 33.0101C39.8701 33.1201 39.6501 33.11 39.4801 32.98C37.5501 31.53 35.8601 29.8001 34.4301 27.8101C31.3201 31.8901 26.7801 34.23 21.8601 34.23ZM9.38014 26.1501C12.2501 30.5801 16.8901 33.2101 21.8701 33.2101C26.6801 33.2101 31.1101 30.8101 34.0301 26.6301C34.1301 26.4901 34.2801 26.41 34.4501 26.41C34.6201 26.41 34.7701 26.4901 34.8701 26.6301C36.0201 28.3301 37.3601 29.85 38.8801 31.17C38.7501 30.81 38.6101 30.4501 38.4601 30.0801C37.9601 28.8201 37.4401 27.5101 37.4401 26.1501C37.4401 24.7901 37.9601 23.48 38.4601 22.22C38.6101 21.85 38.7501 21.4801 38.8801 21.1301C37.3601 22.4401 36.0201 23.97 34.8701 25.67C34.7801 25.81 34.6201 25.8901 34.4501 25.8901C34.2601 25.8801 34.1301 25.81 34.0301 25.67C31.1101 21.49 26.6801 19.0901 21.8701 19.0901C16.8901 19.0901 12.2401 21.7201 9.38014 26.1501Z" fill="white"/>
<path d="M13.6602 24.58C13.6602 25.3 14.2102 25.89 14.8802 25.89C15.5502 25.89 16.1002 25.3 16.1002 24.58C16.1002 23.86 15.5502 23.27 14.8802 23.27C14.2002 23.27 13.6602 23.86 13.6602 24.58Z" fill="white"/>
<path d="M19.5001 33.72L18.6401 33.19C22.8201 26.4 18.6801 19.32 18.6401 19.25L19.5101 18.73C19.5501 18.8 24.0101 26.39 19.5001 33.72Z" fill="white"/>
<path d="M26.5601 19.61L25.8601 18.88C26.9701 17.82 27.0101 16.24 26.9601 15.5C22.3701 15.63 20.5601 18.7 20.4901 18.84L19.6101 18.34C19.7001 18.18 21.8401 14.48 27.2701 14.48C27.3201 14.48 27.3701 14.48 27.4201 14.48C27.6601 14.48 27.8701 14.65 27.9101 14.89C27.9301 15 28.4501 17.81 26.5601 19.61Z" fill="white"/>
</svg>
