<svg width="49" height="49" viewBox="0 0 49 49" fill="none" xmlns="http://www.w3.org/2000/svg">
<path d="M24.28 48.6C37.5349 48.6 48.28 37.8548 48.28 24.6C48.28 11.3451 37.5349 0.599976 24.28 0.599976C11.0252 0.599976 0.280029 11.3451 0.280029 24.6C0.280029 37.8548 11.0252 48.6 24.28 48.6Z" fill="#E7C256"/>
<path d="M31.3499 40.34H17.2099C16.9299 40.34 16.7 40.11 16.7 39.83V18.53C16.7 18.25 16.9299 18.02 17.2099 18.02H31.36C31.64 18.02 31.87 18.25 31.87 18.53V39.83C31.86 40.11 31.6299 40.34 31.3499 40.34ZM17.72 39.32H30.8499V19.03H17.72V39.32Z" fill="white"/>
<path d="M29.54 19.03H19.02C18.74 19.03 18.51 18.8 18.51 18.52V14.38C18.51 14.1 18.74 13.87 19.02 13.87H29.54C29.82 13.87 30.05 14.1 30.05 14.38V18.52C30.05 18.8 29.82 19.03 29.54 19.03ZM19.53 18.02H29.04V14.89H19.53V18.02V18.02Z" fill="white"/>
<path d="M27.43 14.89H21.13C20.97 14.89 20.82 14.82 20.73 14.69C20.63 14.56 20.6 14.4 20.65 14.25L22.09 9.25C22.15 9.03 22.35 8.88 22.58 8.88H26C26.23 8.88 26.42 9.03 26.49 9.25L27.93 14.25C27.97 14.4 27.94 14.57 27.85 14.69C27.74 14.82 27.59 14.89 27.43 14.89ZM21.81 13.88H26.76L25.61 9.89001H22.95L21.81 13.88Z" fill="white"/>
<path d="M21.6399 22.75H20.6299V24.73H21.6399V22.75Z" fill="white"/>
<path d="M21.6399 27.0601H20.6299V36.3801H21.6399V27.0601Z" fill="white"/>
</svg>
