<svg width="49" height="49" viewBox="0 0 49 49" fill="none" xmlns="http://www.w3.org/2000/svg">
<path d="M24.99 48.6C38.2448 48.6 48.99 37.8548 48.99 24.6C48.99 11.3451 38.2448 0.599976 24.99 0.599976C11.7352 0.599976 0.98999 11.3451 0.98999 24.6C0.98999 37.8548 11.7352 48.6 24.99 48.6Z" fill="#CCAC95"/>
<path d="M20.0899 33.83C18.8999 33.83 17.6199 33.19 16.2499 31.36C14.8599 29.49 13.6199 26.7701 13.0099 24.2601C12.2799 21.2701 12.5799 19.1 13.8499 18.16C15.8299 16.69 19.4999 18.5301 22.2799 20.7301C23.6799 21.8401 24.9299 23.1 25.7999 24.27C26.7799 25.58 27.2399 26.73 27.2099 27.78C27.1999 28.1 27.1599 28.39 27.0699 28.66C27.0599 28.71 27.0399 28.76 27.0099 28.8C26.7799 29.19 26.5899 29.5301 26.4199 29.85C26.4099 29.88 26.3899 29.91 26.3699 29.93C25.7899 30.67 24.9699 31.3101 24.0999 31.9501C22.9199 32.8301 21.5799 33.83 20.0899 33.83ZM15.6299 18.6401C15.1499 18.6401 14.7599 18.75 14.4599 18.97C13.5499 19.64 13.3799 21.48 13.9999 24.02C14.5699 26.37 15.7699 29.0101 17.0699 30.7601C19.4199 33.9301 21.0499 32.97 23.5099 31.15C24.2999 30.56 25.0499 29.99 25.5499 29.36C25.7099 29.05 25.8899 28.71 26.1099 28.35C26.1699 28.17 26.1999 27.9701 26.1999 27.7601C26.1999 27.7601 26.1999 27.76 26.1999 27.75C26.2199 26.94 25.8299 26 24.9899 24.87C24.1699 23.77 22.9899 22.58 21.6599 21.52C19.3299 19.68 17.0999 18.6401 15.6299 18.6401Z" fill="white"/>
<path d="M25.9698 30.13C25.8798 30.13 25.7798 30.1 25.6998 30.05C25.4798 29.91 25.3999 29.63 25.5199 29.39C25.6899 29.04 25.8998 28.68 26.1398 28.27C26.2698 28.05 26.5499 27.96 26.7799 28.07C27.0199 28.18 27.1298 28.44 27.0498 28.69C26.9098 29.12 26.6898 29.52 26.3598 29.93C26.2698 30.06 26.1198 30.13 25.9698 30.13Z" fill="white"/>
<path d="M31.6798 39.0801C30.6198 39.0801 29.5098 38.6801 28.3098 38.1901C26.8198 37.5901 25.5198 37.0101 24.7698 35.9301C23.9198 34.7101 23.9398 33.1101 24.8298 30.9001C25.0198 30.4101 25.2598 29.9001 25.5298 29.3801C25.5398 29.3501 25.5598 29.3301 25.5798 29.3001C25.8198 29.0001 25.9898 28.7001 26.0898 28.4001C26.0998 28.3501 26.1198 28.3001 26.1498 28.2601C26.2998 28.0101 26.4498 27.7601 26.6098 27.5101C28.0298 25.3001 30.3198 22.5701 32.4998 21.5201C33.4898 21.0501 34.3598 20.9601 35.1098 21.2601C36.5798 21.8501 37.3898 23.9601 37.3798 27.2001C37.3698 29.9201 36.7898 33.0301 35.8698 35.3301C34.9798 37.5401 33.8898 38.7101 32.4398 39.0001C32.1798 39.0601 31.9298 39.0801 31.6798 39.0801ZM26.3998 29.9001C26.1498 30.3701 25.9398 30.8401 25.7698 31.2801C24.7798 33.7301 25.1998 34.7801 25.5998 35.3501C26.1898 36.2001 27.3498 36.7101 28.6898 37.2501C30.0298 37.7901 31.2198 38.2201 32.2298 38.0101C32.9198 37.8701 33.9398 37.4101 34.9198 34.9601C35.7798 32.8101 36.3498 29.7701 36.3598 27.2101C36.3698 24.4901 35.7598 22.6301 34.7298 22.2101C34.2598 22.0301 33.6598 22.1001 32.9398 22.4501C31.2798 23.2501 29.1798 25.4001 27.4698 28.0701C27.3298 28.2901 27.1898 28.5101 27.0598 28.7301C26.9098 29.1301 26.6998 29.5101 26.3998 29.9001Z" fill="white"/>
<path d="M25.9698 30.13C25.8798 30.13 25.7798 30.1 25.6998 30.05C25.4798 29.91 25.3999 29.63 25.5199 29.39C25.6899 29.04 25.8998 28.68 26.1398 28.27C26.2698 28.05 26.5499 27.96 26.7799 28.07C27.0199 28.18 27.1298 28.44 27.0498 28.69C26.9098 29.12 26.6898 29.52 26.3598 29.93C26.2698 30.06 26.1198 30.13 25.9698 30.13Z" fill="white"/>
<path d="M27.0299 28.3C27.0099 28.3 26.9998 28.3 26.9798 28.3L26.6499 28.26C26.3799 28.24 26.1799 28.01 26.1899 27.74C26.2099 26.93 25.8198 25.99 24.9798 24.86C24.1598 23.76 22.9799 22.57 21.6499 21.51C21.4999 21.39 21.4298 21.2 21.4698 21.02C22.3898 16.21 25.5999 9.75002 28.7699 10.14C31.9299 10.53 33.3798 17.28 33.2198 22C33.2098 22.19 33.0999 22.36 32.9299 22.44C31.2699 23.24 29.1699 25.39 27.4599 28.06C27.3599 28.21 27.1999 28.3 27.0299 28.3ZM22.5299 20.92C23.8299 21.98 24.9899 23.16 25.8099 24.26C26.4899 25.17 26.9198 26 27.1098 26.78C28.4598 24.83 30.3698 22.68 32.2298 21.67C32.3198 16.96 30.8198 11.42 28.6598 11.15C26.4598 10.89 23.4999 16.23 22.5299 20.92Z" fill="white"/>
<path d="M17.7299 27.41C16.3799 25.79 15.4199 21.89 15.3799 21.72L16.3599 21.48C16.3699 21.52 17.2999 25.31 18.4999 26.76L17.7299 27.41Z" fill="white"/>
<path d="M33.0999 33.67L32.3499 32.99C33.1199 32.14 33.4299 29.47 33.4799 28.51L34.4899 28.57C34.4699 28.96 34.2499 32.4 33.0999 33.67Z" fill="white"/>
<path d="M31.2109 34.2009L30.3069 35.4103L31.1158 36.015L32.0198 34.8056L31.2109 34.2009Z" fill="white"/>
<path d="M30.6099 21.69L29.6099 21.53C29.8499 20.06 29.1099 17.24 29.0999 17.22L30.0799 16.96C30.1099 17.07 30.8799 20 30.6099 21.69Z" fill="white"/>
</svg>
