<svg width="49" height="49" viewBox="0 0 49 49" fill="none" xmlns="http://www.w3.org/2000/svg">
<path d="M24.6301 48.05C37.885 48.05 48.6301 37.3049 48.6301 24.05C48.6301 10.7952 37.885 0.0500488 24.6301 0.0500488C11.3753 0.0500488 0.630127 10.7952 0.630127 24.05C0.630127 37.3049 11.3753 48.05 24.6301 48.05Z" fill="#6CC28C"/>
<path d="M28.9801 25.51C28.8701 25.51 28.7602 25.47 28.6702 25.4C27.5502 24.52 26.9102 23.19 26.9102 21.76C26.9102 19.2 28.9902 17.12 31.5502 17.12C32.1802 17.12 32.7801 17.24 33.3401 17.48C33.5901 17.59 33.7101 17.87 33.6201 18.12C32.6701 20.68 31.2502 23.1 29.3802 25.32C29.2702 25.44 29.1201 25.51 28.9801 25.51ZM31.5401 18.13C29.5401 18.13 27.9202 19.76 27.9202 21.76C27.9202 22.71 28.2801 23.6 28.9301 24.27C30.4401 22.39 31.6302 20.37 32.4702 18.25C32.1702 18.17 31.8501 18.13 31.5401 18.13Z" fill="white"/>
<path d="M22.19 31.47C22.05 31.47 21.92 31.41 21.82 31.31C20.98 30.4 20.52 29.21 20.52 27.96C20.52 25.22 22.75 22.99 25.49 22.99C26.96 22.99 28.35 23.64 29.29 24.76C29.45 24.95 29.45 25.22 29.29 25.41C27.43 27.61 25.13 29.62 22.47 31.38C22.39 31.45 22.29 31.47 22.19 31.47ZM25.49 24.01C23.31 24.01 21.53 25.79 21.53 27.97C21.53 28.81 21.8 29.63 22.29 30.3C24.58 28.74 26.57 27 28.22 25.11C27.5 24.4 26.52 24.01 25.49 24.01Z" fill="white"/>
<path d="M15.45 35.09C15.28 35.09 15.1099 35 15.0099 34.84C14.6399 34.22 14.45 33.51 14.45 32.78C14.45 30.53 16.28 28.71 18.52 28.71C20.09 28.71 21.53 29.6299 22.2 31.0399C22.31 31.2699 22.23 31.5399 22.02 31.6799C20.03 32.9699 17.88 34.1 15.64 35.05C15.59 35.08 15.52 35.09 15.45 35.09ZM18.53 29.72C16.84 29.72 15.47 31.09 15.47 32.78C15.47 33.18 15.55 33.5699 15.69 33.9299C17.57 33.1099 19.38 32.15 21.07 31.09C20.52 30.25 19.56 29.72 18.53 29.72Z" fill="white"/>
<path d="M11.72 36.46C11.5 36.46 11.3 36.31 11.23 36.09C9.29004 29.3 16 26.41 17.59 25.83C18.12 21.74 22.55 20.04 23.78 19.64C24.22 17.4 25.26 15.69 26.89 14.53C30.03 12.3 34.19 12.99 34.36 13.02C34.63 13.07 34.82 13.32 34.77 13.6C34.53 15.14 34.14 16.66 33.59 18.12C32.65 20.67 31.22 23.09 29.37 25.31C29.36 25.33 29.34 25.35 29.32 25.37C29.31 25.39 29.29 25.4 29.28 25.42C27.42 27.62 25.12 29.63 22.46 31.39C22.32 31.49 22.16 31.6 22 31.69C21.88 31.76 21.73 31.78 21.59 31.74C21.45 31.7 21.34 31.6 21.28 31.47C20.78 30.41 19.69 29.72 18.52 29.72C16.83 29.72 15.46 31.09 15.46 32.78C15.46 33.33 15.61 33.86 15.88 34.32C15.95 34.45 15.97 34.6 15.93 34.74C15.88 34.88 15.78 34.99 15.65 35.05C13.41 36.01 11.92 36.42 11.85 36.44C11.81 36.45 11.77 36.46 11.72 36.46ZM32.66 13.92C31.26 13.92 29.17 14.16 27.47 15.36C26 16.4 25.08 18 24.72 20.11C24.69 20.31 24.54 20.46 24.35 20.52C24.3 20.53 18.87 22.04 18.56 26.24C18.54 26.45 18.4 26.63 18.2 26.69C17.88 26.78 10.68 29.02 12.08 35.32C12.62 35.15 13.56 34.83 14.76 34.34C14.56 33.85 14.46 33.33 14.46 32.79C14.46 30.54 16.29 28.72 18.53 28.72C19.9 28.72 21.18 29.42 21.93 30.55C24.51 28.83 26.72 26.9 28.51 24.79C28.52 24.77 28.54 24.75 28.55 24.73C28.56 24.71 28.58 24.7 28.59 24.68C30.38 22.55 31.75 20.22 32.65 17.78C33.11 16.55 33.46 15.27 33.69 13.97C33.43 13.94 33.08 13.92 32.66 13.92Z" fill="white"/>
<path d="M18.8401 39.83C14.1101 39.83 11.3502 36.31 11.3202 36.26C11.1502 36.04 11.1902 35.72 11.4202 35.55C11.6402 35.38 11.9602 35.42 12.1302 35.64C12.3002 35.86 16.2602 40.88 22.9902 37.86C27.8002 35.7 35.9002 29.8 37.1702 23.16C37.8001 19.87 36.7002 16.75 33.9102 13.88C33.8002 13.77 33.7502 13.62 33.7702 13.47L34.3302 8.73001C34.3602 8.45001 34.6102 8.25001 34.8902 8.29001C35.1702 8.32001 35.3702 8.58002 35.3302 8.85002L34.8002 13.36C37.7102 16.44 38.8402 19.8 38.1602 23.36C36.8102 30.43 28.5901 36.46 23.4001 38.8C21.7301 39.53 20.2101 39.83 18.8401 39.83Z" fill="white"/>
</svg>
