<svg width="49" height="49" viewBox="0 0 49 49" fill="none" xmlns="http://www.w3.org/2000/svg">
<path d="M24.97 48.6C38.2248 48.6 48.97 37.8548 48.97 24.6C48.97 11.3451 38.2248 0.599976 24.97 0.599976C11.7151 0.599976 0.969971 11.3451 0.969971 24.6C0.969971 37.8548 11.7151 48.6 24.97 48.6Z" fill="#8580BD"/>
<path d="M28.7601 14.46H21.1701C19.6301 14.46 18.3801 13.21 18.3801 11.67C18.3801 10.13 19.6301 8.88 21.1701 8.88H28.7601C30.3001 8.88 31.5501 10.13 31.5501 11.67C31.5601 13.21 30.3001 14.46 28.7601 14.46ZM21.1701 9.89001C20.1901 9.89001 19.3901 10.69 19.3901 11.67C19.3901 12.65 20.1901 13.45 21.1701 13.45H28.7601C29.7401 13.45 30.5401 12.65 30.5401 11.67C30.5401 10.69 29.7401 9.89001 28.7601 9.89001H21.1701Z" fill="white"/>
<path d="M33.64 40.3399H16.3C16.02 40.3399 15.79 40.1099 15.79 39.8299V29.2999C15.79 28.5599 15.9 27.7399 16.11 26.8699C16.89 23.7099 19.03 20.1599 21.7 19.2099V13.9399C21.7 13.6599 21.93 13.4299 22.21 13.4299H27.73C28.01 13.4299 28.24 13.6599 28.24 13.9399V19.2C31.81 20.45 34.15 25.9799 34.15 29.2799V39.8099C34.14 40.1099 33.92 40.3399 33.64 40.3399ZM16.81 39.3199H33.13V29.2999C33.13 25.8599 30.53 20.8299 27.6 20.0799C27.38 20.0199 27.22 19.8199 27.22 19.5899V14.4599H22.72V19.5899C22.72 19.8199 22.56 20.0199 22.34 20.0799C19.91 20.6999 17.83 24.1699 17.11 27.1099C16.92 27.8899 16.82 28.6499 16.82 29.2999V39.3199H16.81Z" fill="white"/>
<path d="M33.3301 28.36C32.5601 28.36 32.2101 27.71 31.9601 27.23C31.7701 26.87 31.6301 26.63 31.4801 26.63C31.3301 26.63 31.1901 26.87 31.0001 27.23C30.7401 27.71 30.3901 28.36 29.6301 28.36C28.8601 28.36 28.5101 27.71 28.2501 27.23C28.0601 26.87 27.9201 26.63 27.7701 26.63C27.6201 26.63 27.4801 26.87 27.2901 27.23C27.0301 27.71 26.6801 28.36 25.9101 28.36C25.1401 28.36 24.7901 27.71 24.5401 27.23C24.3501 26.87 24.2101 26.63 24.0601 26.63C23.9101 26.63 23.7701 26.87 23.5801 27.23C23.3201 27.71 22.9701 28.36 22.2101 28.36C21.4401 28.36 21.0901 27.71 20.8301 27.23C20.6401 26.87 20.5001 26.63 20.3501 26.63C20.2001 26.63 20.0601 26.87 19.8701 27.23C19.6101 27.71 19.2601 28.36 18.4901 28.36C17.7201 28.36 17.3701 27.71 17.1101 27.23C16.9201 26.87 16.7801 26.63 16.6301 26.63V25.62C17.4001 25.62 17.7501 26.27 18.0101 26.75C18.2001 27.11 18.3401 27.35 18.4901 27.35C18.6401 27.35 18.7801 27.11 18.9701 26.75C19.2301 26.27 19.5801 25.62 20.3501 25.62C21.1201 25.62 21.4701 26.27 21.7201 26.75C21.9101 27.11 22.0501 27.35 22.2001 27.35C22.3501 27.35 22.4901 27.11 22.6801 26.75C22.9401 26.27 23.2901 25.62 24.0501 25.62C24.8201 25.62 25.1701 26.27 25.4201 26.75C25.6101 27.11 25.7501 27.35 25.9001 27.35C26.0501 27.35 26.1901 27.11 26.3801 26.75C26.6401 26.27 26.9901 25.62 27.7501 25.62C28.5101 25.62 28.8701 26.27 29.1201 26.75C29.3101 27.11 29.4501 27.35 29.6001 27.35C29.7501 27.35 29.8901 27.11 30.0801 26.75C30.3401 26.27 30.6901 25.62 31.4601 25.62C32.2301 25.62 32.5801 26.27 32.8301 26.75C33.0201 27.11 33.1601 27.35 33.3101 27.35V28.36H33.3301Z" fill="white"/>
<path d="M22.7701 25.03C22.1301 25.03 21.6201 24.51 21.6201 23.88C21.6201 23.24 22.1401 22.73 22.7701 22.73C23.4001 22.73 23.9201 23.25 23.9201 23.88C23.9201 24.51 23.4001 25.03 22.7701 25.03ZM22.7701 23.73C22.6901 23.73 22.6301 23.79 22.6301 23.87C22.6301 23.95 22.6901 24.01 22.7701 24.01C22.8501 24.01 22.9101 23.95 22.9101 23.87C22.9101 23.79 22.8501 23.73 22.7701 23.73Z" fill="white"/>
<path d="M27.3799 24.02C26.5899 24.02 25.95 23.38 25.95 22.59C25.95 21.8 26.5899 21.16 27.3799 21.16C28.1699 21.16 28.8099 21.8 28.8099 22.59C28.8199 23.37 28.1699 24.02 27.3799 24.02ZM27.3799 22.16C27.1499 22.16 26.9599 22.35 26.9599 22.58C26.9599 22.81 27.1499 23 27.3799 23C27.6099 23 27.7999 22.81 27.7999 22.58C27.7999 22.35 27.6099 22.16 27.3799 22.16Z" fill="white"/>
<path d="M25.0299 19.36C24.2699 19.36 23.6499 18.74 23.6499 17.98C23.6499 17.22 24.2699 16.6 25.0299 16.6C25.7899 16.6 26.4099 17.22 26.4099 17.98C26.4099 18.74 25.7899 19.36 25.0299 19.36ZM25.0299 17.61C24.8299 17.61 24.6599 17.77 24.6599 17.98C24.6599 18.18 24.8299 18.35 25.0299 18.35C25.2299 18.35 25.3999 18.18 25.3999 17.98C25.3999 17.78 25.2299 17.61 25.0299 17.61Z" fill="white"/>
</svg>
