<svg width="49" height="49" viewBox="0 0 49 49" fill="none" xmlns="http://www.w3.org/2000/svg">
<path d="M24.6301 48.43C37.885 48.43 48.6301 37.6848 48.6301 24.43C48.6301 11.1752 37.885 0.429993 24.6301 0.429993C11.3753 0.429993 0.630127 11.1752 0.630127 24.43C0.630127 37.6848 11.3753 48.43 24.6301 48.43Z" fill="#A898A0"/>
<path d="M24.6301 40.11C19.6501 40.11 14.29 36.27 14.29 27.83C14.29 19.1 19.8901 8.76001 24.6301 8.76001C29.3601 8.76001 34.97 19.13 34.97 27.9C34.96 36.29 29.6101 40.11 24.6301 40.11ZM24.6301 9.77001C20.4501 9.77001 15.3 19.73 15.3 27.83C15.3 35.57 20.1301 39.1 24.6301 39.1C29.2701 39.1 33.9601 35.64 33.9601 27.9C33.9501 19.76 28.8101 9.77001 24.6301 9.77001Z" fill="white"/>
<path d="M24.6301 36.12C21.0301 36.12 18.1001 33.19 18.1001 29.59C18.1001 25.99 21.0301 23.06 24.6301 23.06C28.2301 23.06 31.1601 25.99 31.1601 29.59C31.1601 33.19 28.2301 36.12 24.6301 36.12ZM24.6301 24.07C21.5901 24.07 19.1101 26.55 19.1101 29.59C19.1101 32.63 21.5901 35.11 24.6301 35.11C27.6701 35.11 30.1501 32.63 30.1501 29.59C30.1501 26.55 27.6701 24.07 24.6301 24.07Z" fill="white"/>
</svg>
